<svg width="109" height="20" viewBox="0 0 109 20" fill="none" xmlns="http://www.w3.org/2000/svg">
<path d="M10.5 0L12.7451 6.90983H20.0106L14.1327 11.1803L16.3779 18.0902L10.5 13.8197L4.62215 18.0902L6.86729 11.1803L0.989435 6.90983H8.25486L10.5 0Z" fill="#FBBC04"/>
<path d="M32.5 0L34.7451 6.90983H42.0106L36.1327 11.1803L38.3779 18.0902L32.5 13.8197L26.6221 18.0902L28.8673 11.1803L22.9894 6.90983H30.2549L32.5 0Z" fill="#FBBC04"/>
<path d="M54.5 0L56.7451 6.90983H64.0106L58.1327 11.1803L60.3779 18.0902L54.5 13.8197L48.6221 18.0902L50.8673 11.1803L44.9894 6.90983H52.2549L54.5 0Z" fill="#FBBC04"/>
<path d="M76.5 0L78.7451 6.90983H86.0106L80.1327 11.1803L82.3779 18.0902L76.5 13.8197L70.6221 18.0902L72.8673 11.1803L66.9894 6.90983H74.2549L76.5 0Z" fill="#FBBC04"/>
<path d="M98.5 0L100.745 6.90983H108.011L102.133 11.1803L104.378 18.0902L98.5 13.8197L92.6221 18.0902L94.8673 11.1803L88.9894 6.90983H96.2549L98.5 0Z" fill="#FBBC04"/>
</svg>
